<svg xmlns="http://www.w3.org/2000/svg" width="64" height="64" viewBox="0 0 64 64" role="img" aria-labelledby="title">
  <title>CertSherpa</title>
  <defs>
    <linearGradient id="g" x1="0" x2="1" y1="0" y2="1">
      <stop offset="0%" stop-color="#51cbce"/>
      <stop offset="100%" stop-color="#51bcda"/>
    </linearGradient>
  </defs>
  <rect rx="12" ry="12" x="2" y="2" width="60" height="60" fill="url(#g)"/>
  <g fill="#fff" transform="translate(12,14)">
    <path d="M20 6c-7 0-12 5-12 12s5 12 12 12c3 0 6-1 8-3l3 3c-3 3-7 5-11 5-9 0-16-7-16-16S11 3 20 3c4 0 8 2 11 5l-3 3c-2-2-5-3-8-3z"/>
    <circle cx="36" cy="28" r="3"/>
  </g>
</svg>

