<?xml version="1.0" standalone="no"?>

<!DOCTYPE svg PUBLIC "-//W3C//DTD SVG 20010904//EN"
 "http://www.w3.org/TR/2001/REC-SVG-20010904/DTD/svg10.dtd">
<svg version="1.0" xmlns="http://www.w3.org/2000/svg"
 width="900.000000pt" height="261.000000pt" viewBox="0 0 900.000000 261.000000"
 preserveAspectRatio="xMidYMid meet">

<metadata>
Created by potrace 1.10, written by Peter Selinger 2001-2011
</metadata>

<g transform="translate(0.000000,261.000000) scale(0.100000,-0.100000)"
fill="#007375" stroke="none">
<path d="M775 2098 c-9 -22 -2 -63 10 -63 14 0 18 41 6 62 -9 17 -10 17 -16 1z"/>
<path d="M617 2023 c-8 -7 31 -53 45 -53 13 0 9 18 -9 40 -19 21 -26 24 -36
13z"/>
<path d="M907 2005 c-9 -13 -14 -26 -9 -28 9 -7 52 28 52 42 0 19 -24 11 -43
-14z"/>
<path d="M750 1962 c-50 -23 -63 -41 -68 -95 -4 -46 -1 -57 20 -82 21 -24 33
-29 77 -29 47 -1 56 2 82 32 20 23 29 43 29 67 0 64 -88 132 -140 107z"/>
<path d="M537 1874 c-13 -13 5 -24 39 -24 24 0 34 4 32 13 -5 13 -60 22 -71
11z"/>
<path d="M957 1874 c-13 -13 5 -24 39 -24 19 0 34 4 34 9 0 17 -59 29 -73 15z"/>
<path d="M638 1731 c-10 -10 -18 -21 -18 -24 0 -14 23 -7 36 11 26 34 12 44
-18 13z"/>
<path d="M900 1737 c0 -14 31 -47 43 -47 14 0 6 26 -13 43 -24 21 -30 21 -30
4z"/>
<path d="M1608 1711 c-1 -5 -34 -44 -73 -87 -38 -43 -110 -122 -158 -176 l-89
-98 86 -82 c47 -45 86 -90 86 -100 0 -9 -56 -72 -125 -139 -69 -68 -125 -128
-125 -136 0 -16 65 -66 210 -163 62 -41 117 -80 124 -85 50 -44 54 -45 331
-45 l265 0 0 307 0 307 -252 253 c-139 139 -258 253 -264 253 -7 0 -14 -4 -16
-9z"/>
<path d="M775 1678 c-9 -22 -2 -63 10 -63 14 0 18 41 6 62 -9 17 -10 17 -16 1z"/>
<path d="M5605 1617 c-3 -6 -4 -172 -3 -367 l3 -355 70 0 70 0 5 160 c6 191
14 214 85 239 42 14 50 14 85 0 64 -26 69 -41 72 -231 l3 -168 70 0 70 0 2
190 3 190 -28 50 c-53 98 -189 134 -296 80 -27 -14 -53 -25 -58 -25 -4 0 -8
49 -8 109 0 60 -3 116 -6 125 -8 20 -132 23 -139 3z"/>
<path d="M2975 1585 c-72 -15 -106 -32 -164 -81 -156 -134 -161 -373 -11 -523
72 -70 145 -96 275 -95 86 0 108 4 155 26 31 14 71 38 89 53 l32 28 -33 34
c-53 56 -59 57 -124 18 -48 -29 -67 -35 -115 -35 -112 0 -193 61 -223 169 -14
52 -14 63 -1 116 9 33 24 68 33 79 64 74 97 89 189 89 63 -1 77 -4 118 -32 25
17 53 -31 61 -31 9 0 33 17 55 37 l39 37 -28 29 c-36 39 -94 68 -167 83 -72
16 -101 16 -180 -1z"/>
<path d="M5115 1585 c-71 -17 -108 -39 -144 -84 -37 -47 -49 -114 -32 -178 16
59 89 -113 181 -134 172 -39 204 -56 208 -110 2 -27 -3 -38 -25 -54 -24 -17
43 -20 -118 -19 -75 1 -99 6 -144 28 -30 14 -61 26 -68 26 -13 0 -53 -73 -53
96 0 20 107 65 179 76 158 23 292 12 351 94 27 36 30 49 30 113 0 69 -1
73 -36 109 -36 37 -83 62 -144 77 -155 36 -205 58 -214 94 -9 34 15 72 52 86
37 15 181 5 220 -15 17 -9 36 -16 41 -16 12 0 51 72 51 94 0 21 -52 46 -130
62 -77 17 -137 16 -205 -1z"/>
<path d="M4553 1543 c-8 -3 -13 -24 -13 -53 0 -39 -4 -52 -20 -60 -10 -6 -23
-10 -27 -9 -29 5 -34 -3 -31 -53 3 -49 5 -53 30 -56 14 -2 31 -9 36 -15 6 -7
12 -77 14 -157 2 -123 6 -150 23 -178 30 -51 80 -72 170 -72 115 0 136 20 95
88 -18 30 -23 32 -59 26 -31 -5 -43 -2 -60 15 -20 20 -21 30 -19 154 l3 132
60 5 60 5 3 49 c4 55 -7 68 -50 59 -15 -3 -39 -2 -53 1 -23 6 -25 11 -25 56 0
39 -4 52 -19 60 -20 10 -96 13 -118 3z"/>
<path d="M965 1437 c-88 -60 -455 -336 -487 -365 l-28 -26 0 -223 0 -223 410
0 c232 0 410 4 410 9 0 5 -49 64 -110 131 -72 80 -110 130 -110 145 0 16 25
45 83 96 146 131 207 192 207 209 0 9 -15 30 -32 46 -47 42 -250 217 -268 231
-12 9 -27 3 -75 -30z"/>
<path d="M3575 1413 c-50 -20 -108 -65 -136 -104 -34 -48 -52 -144 -38 -204
21 -91 65 -148 149 -190 42 -21 63 -25 145 -25 96 0 147 14 198 53 24 20 22
28 -18 67 l-35 34 -37 -19 c-26 -14 -56 -20 -103 -20 -58 0 -71 4 -104 28 -29
23 -36 35 -34 55 l3 27 190 5 190 5 3 57 c5 92 -45 170 -141 218 -49 25 -72
30 -126 29 -36 0 -84 -7 -106 -16z m193 -126 c32 -29 43 -52 36 -71 -9 -22
-239 -24 -247 -2 -14 35 21 78 78 98 36 12 107 -1 133 -25z"/>
<path d="M4080 1420 c-7 -4 -9 -99 -8 -266 l3 -259 70 0 70 0 5 158 c5 152 6
158 32 191 20 25 40 37 80 46 29 7 56 18 60 24 4 6 8 33 8 59 0 35 -4 49 -17
54 -19 7 -110 -22 -135 -44 -20 -18 -38 -9 -38 18 0 11 -7 19 -17 20 -80 5
-104 4 -113 -1z"/>
<path d="M6430 1411 c-62 -25 -131 -96 -153 -157 -37 -105 -15 -206 62 -283
63 -63 113 -81 224 -81 82 0 100 3 148 28 30 15 55 34 57 42 1 9 -9 30 -24 48
-26 31 -57 41 -69 22 -11 -18 -88 -32 -141 -25 -60 7 -117 53 -112 89 3 20 10
21 198 26 l195 5 3 38 c8 98 -72 213 -174 250 -62 22 -156 21 -214 -2z m178
-108 c37 -20 73 -69 65 -89 -4 -11 -34 -14 -129 -14 -145 0 -156 7 -107 68 43
53 111 67 171 35z"/>
<path d="M6951 1418 c-21 -7 -21 -13 -21 -262 l0 -256 23 -5 c13 -4 46 -5 73
-3 l49 3 6 150 c7 200 18 222 119 247 l55 13 0 60 c0 57 -1 60 -26 63 -14 2
-51 -11 -83 -28 -61 -31 -76 -31 -76 1 0 10 -3 19 -7 20 -38 5 -95 4 -112 -3z"/>
<path d="M7380 1420 c-7 -4 -9 -133 -8 -366 l3 -359 60 -3 c80 -4 85 4 85 135
0 113 3 117 55 83 44 -29 175 -28 229 1 50 27 88 65 115 115 30 56 30 202 0
259 -53 100 -139 150 -248 143 -49 -2 -75 -9 -99 -27 -34 -24 -62 -22 -62 4 0
8 -8 15 -17 16 -80 4 -104 4 -113 -1z m345 -130 c57 -35 69 -66 66 -171 -1
-27 -10 -45 -38 -72 -34 -35 -40 -37 -97 -37 -64 1 -85 11 -119 60 -26 37 -24
144 4 178 49 63 123 80 184 42z"/>
<path d="M8134 1412 c-29 -9 -61 -25 -72 -35 -19 -18 -19 -18 -1 -58 21 -43
45 -49 89 -24 15 8 52 14 90 14 52 0 70 -4 91 -22 29 -24 43 -56 31 -73 -4 -6
55 -14 -115 -18 -120 -7 -140 -13 -185 -50 -55 -47 -56 -151 -1 -207 39 -40
68 -49 157 -49 64 1 84 5 116 25 l40 24 11 -22 c9 -19 19 -22 70 -22 l60 0 0
197 0 196 -30 44 c-48 67 -102 92 -210 95 -65 2 -104 -2 -141 -15z m224 -304
c16 -16 15 -60 0 -80 -54 -65 -168 -63 -191 5 -10 27 13 67 42 73 14 3 31 7
36 9 25 9 102 4 113 -7z"/>

</g>

</svg>
<svg xmlns="http://www.w3.org/2000/svg" width="64" height="64" viewBox="0 0 64 64" role="img" aria-labelledby="title">
  <title>CertSherpa</title>
  <defs>
    <linearGradient id="g" x1="0" x2="1" y1="0" y2="1">
      <stop offset="0%" stop-color="#51cbce"/>
      <stop offset="100%" stop-color="#51bcda"/>
    </linearGradient>
  </defs>
  <rect rx="12" ry="12" x="2" y="2" width="60" height="60" fill="url(#g)"/>
  <g fill="#fff" transform="translate(12,14)">
    <path d="M20 6c-7 0-12 5-12 12s5 12 12 12c3 0 6-1 8-3l3 3c-3 3-7 5-11 5-9 0-16-7-16-16S11 3 20 3c4 0 8 2 11 5l-3 3c-2-2-5-3-8-3z"/>
    <circle cx="36" cy="28" r="3"/>
  </g>
</svg>

